<svg xmlns="http://www.w3.org/2000/svg" width="900" height="4217">
<path id="bubble1" d="M 368 4009 369 4009 Z" fill="none" stroke="black"/>
<path id="bubble2" d="M 214 4009 216 4009 Z" fill="none" stroke="black"/>
<path id="bubble3" d="M 382 4008 381 4009 383 4009 Z" fill="none" stroke="black"/>
<path id="bubble4" d="M 202 4008 201 4009 203 4009 Z" fill="none" stroke="black"/>
<path id="bubble5" d="M 448 4007 447 4008 446 4008 445 4009 443 4009 448 4009 Z" fill="none" stroke="black"/>
<path id="bubble6" d="M 135 4007 135 4009 140 4009 138 4009 137 4008 136 4008 Z" fill="none" stroke="black"/>
<path id="bubble7" d="M 277 4005 276 4006 270 4006 269 4007 263 4007 262 4008 244 4008 243 4009 281 4009 280 4008 280 4005 Z" fill="none" stroke="black"/>
<path id="bubble8" d="M 130 4003 Z" fill="none" stroke="black"/>
<path id="bubble9" d="M 180 4002 180 4006 177 4009 190 4009 189 4008 188 4008 185 4005 184 4005 182 4003 181 4003 Z" fill="none" stroke="black"/>
<path id="bubble10" d="M 404 4001 401 4004 400 4004 398 4006 397 4006 394 4009 406 4009 404 4007 Z" fill="none" stroke="black"/>
<path id="bubble11" d="M 478 3996 477 3997 476 3997 475 3998 479 3998 483 4002 483 4005 482 4006 482 4007 480 4009 483 4009 483 4007 486 4004 487 4004 487 4003 486 4003 479 3996 Z" fill="none" stroke="black"/>
<path id="bubble12" d="M 427 3996 426 3997 422 3997 421 3998 418 3998 417 3999 416 3999 415 4000 414 4000 414 4001 416 4003 416 4004 417 4005 417 4007 415 4009 424 4009 424 4006 428 4002 428 4001 433 3996 Z" fill="none" stroke="black"/>
<path id="bubble13" d="M 151 3996 155 4000 155 4001 158 4004 158 4005 159 4006 159 4009 169 4009 167 4007 167 4003 169 4001 169 4000 168 3999 166 3999 165 3998 162 3998 161 3997 157 3997 156 3996 Z" fill="none" stroke="black"/>
<path id="bubble14" d="M 292 3995 288 3999 287 3999 286 4000 289 4003 289 4008 288 4009 340 4009 339 4008 322 4008 321 4007 314 4007 313 4006 307 4006 306 4005 303 4005 302 4006 299 4006 297 4004 297 4002 298 4001 298 4000 297 4000 Z" fill="none" stroke="black"/>
<path id="bubble15" d="M 68 3968 66 3970 67 3969 68 3969 Z" fill="none" stroke="black"/>
<path id="bubble16" d="M 519 3948 518 3949 515 3949 515 3951 516 3952 516 3954 517 3955 517 3956 518 3957 518 3958 519 3959 519 3960 523 3964 523 3965 523 3964 522 3963 522 3961 521 3960 521 3957 520 3956 520 3953 519 3952 Z" fill="none" stroke="black"/>
<path id="bubble17" d="M 64 3948 64 3954 63 3955 63 3958 62 3959 62 3962 61 3963 61 3964 60 3965 63 3962 63 3961 65 3959 65 3958 66 3957 66 3956 67 3955 67 3954 68 3953 68 3950 69 3949 69 3948 68 3949 65 3949 Z" fill="none" stroke="black"/>
<path id="bubble18" d="M 532 3941 531 3942 531 3943 530 3944 530 3945 529 3946 531 3946 536 3951 536 3952 537 3953 538 3953 538 3952 541 3949 543 3949 543 3946 541 3948 540 3948 539 3949 537 3949 536 3948 535 3948 532 3945 Z" fill="none" stroke="black"/>
<path id="bubble19" d="M 51 3940 52 3941 52 3945 49 3948 48 3948 47 3949 45 3949 44 3948 43 3948 40 3945 40 3950 41 3949 43 3949 45 3951 45 3952 46 3953 54 3945 53 3944 53 3942 Z" fill="none" stroke="black"/>
<path id="bubble20" d="M 543 3908 543 3911 542 3912 542 3913 541 3914 543 3914 Z" fill="none" stroke="black"/>
<path id="bubble21" d="M 40 3906 40 3916 41 3915 43 3915 42 3914 42 3913 41 3912 41 3911 40 3910 Z" fill="none" stroke="black"/>
<path id="bubble22" d="M 540 3735 541 3736 541 3737 542 3738 542 3739 543 3740 543 3744 544 3745 544 3749 544 3740 543 3739 543 3735 Z" fill="none" stroke="black"/>
<path id="bubble23" d="M 537 3730 537 3731 538 3732 538 3731 Z" fill="none" stroke="black"/>
<path id="bubble24" d="M 47 3730 45 3732 45 3733 43 3735 41 3735 40 3734 40 3746 40 3741 41 3740 41 3739 42 3738 42 3737 43 3736 43 3735 48 3730 Z" fill="none" stroke="black"/>
<path id="bubble25" d="M 544 3713 544 3714 Z" fill="none" stroke="black"/>
<path id="bubble26" d="M 538 3696 535 3699 535 3700 533 3702 532 3702 530 3704 529 3704 529 3705 530 3706 530 3707 531 3708 531 3709 533 3711 534 3711 532 3709 532 3705 534 3703 535 3703 536 3702 540 3702 543 3705 543 3701 541 3701 539 3699 539 3698 538 3697 Z" fill="none" stroke="black"/>
<path id="bubble27" d="M 70 3686 72 3688 Z" fill="none" stroke="black"/>
<path id="bubble28" d="M 517 3680 516 3681 514 3681 514 3685 513 3686 515 3684 515 3683 517 3681 Z" fill="none" stroke="black"/>
<path id="bubble29" d="M 66 3680 66 3681 69 3684 69 3681 68 3681 67 3680 Z" fill="none" stroke="black"/>
<path id="bubble30" d="M 498 3671 Z" fill="none" stroke="black"/>
<path id="bubble31" d="M 85 3671 Z" fill="none" stroke="black"/>
<path id="bubble32" d="M 504 3666 501 3669 503 3669 504 3668 Z" fill="none" stroke="black"/>
<path id="bubble33" d="M 79 3665 79 3668 80 3669 80 3670 81 3669 82 3669 82 3668 81 3668 79 3666 Z" fill="none" stroke="black"/>
<path id="bubble34" d="M 491 3663 490 3664 486 3664 485 3665 481 3665 482 3666 482 3668 484 3668 485 3669 487 3669 488 3668 489 3668 490 3667 492 3667 494 3665 494 3663 Z" fill="none" stroke="black"/>
<path id="bubble35" d="M 544 3652 Z" fill="none" stroke="black"/>
<path id="bubble36" d="M 241 3649 239 3651 228 3651 227 3652 223 3652 222 3653 219 3653 217 3655 214 3655 212 3657 208 3657 207 3656 206 3657 204 3657 203 3658 199 3658 198 3659 196 3659 195 3660 191 3660 190 3661 184 3661 183 3662 174 3662 173 3663 152 3663 151 3662 143 3662 142 3661 140 3661 139 3662 137 3662 136 3663 131 3663 130 3662 129 3662 128 3661 125 3661 124 3662 122 3662 121 3663 117 3663 116 3664 112 3664 111 3665 99 3665 98 3664 94 3664 93 3663 89 3663 88 3662 87 3662 86 3661 84 3661 82 3659 87 3664 88 3664 89 3665 90 3665 92 3667 93 3667 94 3668 95 3668 96 3669 99 3669 100 3670 101 3670 102 3669 105 3669 105 3667 107 3665 109 3665 110 3666 113 3666 115 3668 115 3670 117 3672 117 3674 116 3675 116 3676 118 3678 118 3680 115 3683 115 3685 113 3687 111 3687 110 3688 107 3688 106 3687 103 3687 101 3685 101 3683 100 3682 100 3681 98 3679 98 3678 96 3676 95 3676 94 3675 92 3675 91 3674 90 3674 89 3673 88 3673 87 3672 90 3675 90 3676 93 3679 93 3687 91 3689 89 3689 88 3688 87 3688 88 3689 88 3692 86 3694 79 3694 78 3693 77 3693 75 3691 74 3691 73 3690 73 3691 75 3693 75 3695 76 3696 76 3697 79 3700 81 3700 82 3701 83 3701 86 3704 86 3706 88 3708 88 3711 86 3713 86 3714 84 3716 83 3716 80 3719 78 3719 75 3716 75 3718 73 3720 71 3720 69 3718 69 3716 68 3716 65 3713 65 3711 64 3710 64 3713 63 3714 63 3719 62 3720 62 3723 61 3724 61 3726 60 3727 60 3728 62 3730 62 3739 61 3740 61 3741 60 3742 60 3743 59 3744 59 3745 55 3749 55 3750 53 3752 52 3752 47 3757 46 3757 43 3760 41 3760 40 3759 40 3891 41 3890 43 3890 45 3892 46 3892 50 3896 51 3896 58 3903 58 3904 60 3906 60 3907 61 3908 61 3909 62 3910 62 3920 60 3922 61 3923 61 3925 62 3926 62 3929 63 3930 63 3933 64 3934 64 3939 65 3939 65 3937 68 3934 69 3934 69 3933 68 3932 68 3930 70 3928 72 3928 75 3931 75 3933 75 3932 77 3930 80 3930 82 3932 82 3933 83 3934 85 3934 87 3936 87 3938 89 3940 89 3942 87 3944 87 3946 84 3949 83 3949 82 3950 81 3950 79 3952 78 3952 76 3954 76 3955 75 3956 75 3957 74 3958 74 3959 73 3960 76 3957 78 3957 79 3956 86 3956 88 3958 88 3961 91 3961 94 3964 94 3968 93 3969 93 3972 92 3973 92 3974 90 3976 91 3975 92 3975 93 3974 95 3974 97 3972 97 3971 99 3969 99 3968 100 3967 100 3966 104 3962 106 3962 107 3961 110 3961 112 3963 114 3963 116 3965 116 3967 117 3967 119 3969 119 3972 117 3974 118 3975 120 3975 121 3976 123 3976 125 3978 125 3980 123 3982 122 3982 122 3983 119 3986 116 3986 114 3984 113 3985 110 3985 112 3985 113 3986 118 3986 119 3987 122 3987 123 3988 125 3988 126 3989 127 3989 129 3987 138 3987 139 3988 141 3988 142 3989 143 3988 149 3988 150 3987 175 3987 176 3988 183 3988 184 3989 189 3989 190 3990 194 3990 195 3991 198 3991 199 3992 202 3992 203 3993 206 3993 207 3994 210 3994 211 3995 214 3995 215 3996 218 3996 219 3997 222 3997 223 3998 226 3998 227 3999 231 3999 232 4000 237 4000 238 4001 259 4001 260 4000 266 4000 267 3999 270 3999 271 3998 274 3998 275 3997 276 3997 277 3996 279 3996 280 3995 281 3995 282 3994 283 3994 286 3991 286 3990 287 3989 287 3988 284 3988 283 3989 281 3989 279 3987 279 3984 281 3982 281 3981 284 3978 285 3978 285 3976 286 3975 286 3974 288 3972 288 3971 290 3969 293 3969 296 3972 296 3973 298 3975 298 3978 300 3978 302 3980 302 3982 305 3985 305 3988 303 3990 301 3990 299 3988 297 3988 297 3990 298 3991 298 3992 299 3992 301 3994 302 3994 303 3995 304 3995 305 3996 306 3996 307 3997 309 3997 310 3998 312 3998 313 3999 317 3999 318 4000 323 4000 324 4001 345 4001 346 4000 352 4000 353 3999 357 3999 358 3998 361 3998 362 3997 365 3997 366 3996 368 3996 369 3995 372 3995 373 3994 376 3994 377 3993 381 3993 382 3992 385 3992 386 3991 388 3991 389 3990 393 3990 394 3989 399 3989 400 3988 408 3988 409 3987 433 3987 434 3988 440 3988 441 3989 442 3989 443 3988 445 3988 446 3987 454 3987 456 3989 457 3989 458 3988 460 3988 461 3987 464 3987 465 3986 471 3986 472 3985 473 3985 471 3985 470 3984 469 3984 467 3986 464 3986 462 3984 462 3982 460 3982 458 3980 458 3978 460 3976 462 3976 463 3975 465 3975 466 3974 464 3972 464 3970 467 3967 468 3967 468 3965 470 3963 472 3963 474 3961 476 3961 478 3963 480 3963 484 3967 484 3968 485 3969 485 3970 489 3974 490 3974 491 3975 493 3975 491 3973 491 3972 490 3971 490 3963 492 3961 495 3961 496 3962 495 3961 495 3958 497 3956 505 3956 506 3957 507 3957 509 3959 510 3959 509 3958 509 3957 508 3956 508 3955 503 3950 502 3950 501 3949 499 3949 496 3946 496 3943 495 3942 495 3939 497 3937 497 3936 499 3934 501 3934 501 3933 504 3930 506 3930 508 3932 509 3931 509 3930 511 3928 513 3928 515 3930 515 3934 516 3934 519 3937 519 3939 519 3937 520 3936 520 3932 521 3931 521 3928 522 3927 522 3924 523 3923 523 3922 521 3920 521 3913 522 3912 522 3909 523 3908 523 3907 524 3906 524 3905 536 3893 537 3893 540 3890 543 3890 543 3847 544 3846 544 3756 544 3757 542 3759 540 3759 539 3758 538 3758 535 3755 534 3755 525 3746 525 3745 524 3744 524 3743 523 3742 523 3741 522 3740 522 3737 521 3736 521 3733 522 3732 522 3730 524 3728 523 3727 523 3726 522 3725 522 3722 521 3721 521 3718 520 3717 520 3711 519 3710 519 3701 520 3700 520 3694 521 3693 521 3690 522 3689 522 3687 523 3686 523 3685 520 3688 520 3689 517 3692 517 3694 516 3695 516 3696 515 3697 515 3700 514 3701 515 3702 515 3705 518 3708 518 3714 516 3716 514 3716 512 3718 510 3718 508 3716 508 3717 506 3719 504 3719 502 3717 502 3716 501 3715 500 3715 498 3713 498 3712 497 3712 495 3710 495 3708 496 3707 496 3704 498 3702 500 3702 501 3701 502 3701 503 3700 504 3700 508 3696 508 3694 510 3692 510 3690 512 3688 508 3692 507 3692 506 3693 505 3693 504 3694 497 3694 495 3692 495 3690 496 3689 496 3688 495 3689 492 3689 490 3687 490 3680 491 3679 491 3678 493 3676 493 3675 495 3673 494 3674 493 3674 492 3675 490 3675 489 3676 488 3676 488 3677 483 3682 483 3685 481 3687 478 3687 476 3689 474 3689 472 3687 470 3687 468 3685 468 3683 467 3683 465 3681 465 3678 467 3676 467 3675 466 3674 466 3672 468 3670 468 3668 470 3666 473 3666 474 3665 472 3665 471 3664 466 3664 465 3663 462 3663 461 3662 459 3662 458 3661 456 3661 455 3662 454 3662 453 3663 447 3663 446 3662 443 3662 442 3661 441 3662 436 3662 435 3663 408 3663 407 3662 401 3662 400 3661 394 3661 393 3660 389 3660 388 3659 383 3659 381 3657 377 3657 376 3656 373 3656 372 3655 369 3655 368 3654 366 3654 365 3653 360 3653 359 3652 357 3652 356 3651 352 3651 351 3650 346 3650 345 3649 324 3649 323 3650 319 3650 318 3651 314 3651 313 3652 310 3652 309 3653 307 3653 306 3654 305 3654 304 3655 302 3655 301 3656 300 3656 297 3659 297 3663 299 3663 301 3665 301 3670 299 3672 298 3672 298 3674 296 3676 296 3677 295 3678 295 3679 293 3681 291 3681 289 3679 289 3678 287 3676 287 3675 286 3674 286 3672 284 3672 282 3670 282 3665 284 3663 286 3663 287 3662 287 3661 286 3660 286 3658 285 3658 282 3655 281 3655 280 3654 278 3654 277 3653 274 3653 273 3652 271 3652 270 3651 266 3651 265 3650 261 3650 260 3649 Z" fill="none" stroke="black"/>
<path id="bubble37" d="M 479 3641 482 3644 482 3649 479 3652 479 3654 480 3654 483 3651 483 3650 485 3648 486 3648 487 3647 488 3647 485 3644 485 3642 486 3641 Z" fill="none" stroke="black"/>
<path id="bubble38" d="M 605 2154 Z" fill="none" stroke="black"/>
<path id="bubble39" d="M 573 1745 Z" fill="none" stroke="black"/>
<path id="bubble40" d="M 465 1721 463 1723 448 1723 448 1725 447 1726 449 1728 449 1733 447 1735 433 1735 431 1737 426 1737 422 1733 422 1729 418 1729 418 1730 417 1731 417 1733 415 1735 410 1735 408 1733 406 1733 405 1734 402 1734 401 1733 401 1735 399 1737 396 1737 394 1735 387 1735 386 1734 386 1735 385 1736 385 1737 384 1738 385 1739 385 1747 383 1749 369 1749 369 1751 367 1753 359 1753 356 1750 353 1753 351 1753 347 1757 346 1757 344 1759 343 1759 343 1761 341 1763 341 1765 339 1767 336 1767 334 1765 333 1765 333 1767 331 1769 328 1769 327 1770 324 1770 324 1771 322 1773 322 1780 319 1783 311 1783 309 1781 309 1785 307 1787 305 1787 305 1797 303 1799 300 1799 299 1798 296 1798 296 1799 294 1801 293 1801 291 1803 290 1803 290 1804 289 1805 289 1806 290 1807 290 1813 288 1815 285 1815 285 1817 283 1819 276 1819 275 1818 275 1819 277 1821 277 1824 274 1827 273 1827 273 1835 272 1836 272 1839 273 1840 273 1845 271 1847 258 1847 258 1858 257 1859 257 1860 258 1861 258 1866 256 1868 255 1868 255 1871 254 1872 254 1873 252 1875 251 1875 251 1876 250 1877 250 1878 248 1880 247 1880 246 1881 245 1881 244 1882 243 1882 244 1883 244 1892 242 1894 242 1896 241 1897 241 1902 242 1903 242 1908 241 1909 242 1910 242 1912 241 1913 242 1914 242 1916 241 1917 241 1924 242 1925 242 1930 241 1931 241 1934 243 1934 245 1936 245 1967 243 1969 243 1979 242 1980 242 1990 238 1994 239 1994 241 1996 241 1998 240 1999 240 2003 241 2004 241 2018 242 2019 242 2026 241 2027 242 2028 242 2029 243 2030 244 2030 248 2034 248 2035 251 2038 251 2040 253 2042 253 2046 255 2048 255 2051 256 2050 263 2050 265 2052 267 2052 269 2054 269 2061 268 2062 268 2063 269 2064 271 2064 273 2066 273 2069 271 2071 269 2071 269 2073 270 2074 270 2075 273 2078 273 2081 271 2083 273 2083 275 2085 275 2087 276 2088 276 2094 275 2095 275 2096 276 2096 277 2095 279 2095 280 2096 282 2096 282 2095 284 2093 286 2093 286 2092 287 2091 287 2090 286 2089 286 2084 288 2082 292 2082 294 2080 302 2080 304 2078 313 2078 314 2079 315 2079 316 2078 323 2078 325 2080 326 2080 328 2082 329 2082 330 2083 331 2083 332 2082 335 2082 337 2084 337 2095 338 2096 338 2098 337 2099 339 2101 339 2107 338 2108 338 2110 337 2111 337 2119 335 2121 335 2122 337 2124 337 2133 335 2135 331 2135 331 2137 329 2139 326 2139 324 2137 324 2139 325 2140 325 2143 322 2146 322 2147 323 2146 335 2146 337 2148 337 2156 338 2157 338 2160 340 2158 342 2158 344 2160 344 2162 346 2162 346 2160 348 2158 351 2158 353 2160 353 2163 359 2163 360 2164 361 2164 365 2168 365 2170 366 2171 366 2166 368 2164 383 2164 385 2166 385 2174 393 2174 394 2175 395 2174 399 2174 401 2176 401 2178 402 2179 402 2184 401 2185 401 2186 400 2187 400 2189 401 2190 401 2192 402 2193 410 2193 412 2195 416 2195 417 2196 419 2196 420 2197 421 2197 422 2196 422 2194 424 2192 426 2192 428 2190 441 2190 442 2191 443 2190 447 2190 449 2192 449 2194 450 2195 450 2200 449 2201 449 2204 448 2205 449 2206 449 2211 448 2212 449 2213 449 2216 448 2217 448 2221 450 2223 450 2225 449 2226 449 2230 450 2231 450 2232 451 2232 453 2234 453 2236 451 2238 450 2238 452 2240 452 2249 453 2250 453 2249 455 2247 457 2247 458 2248 459 2248 461 2250 461 2252 463 2254 463 2256 464 2257 464 2247 462 2245 462 2230 464 2228 464 2218 466 2216 469 2216 469 2214 470 2213 470 2212 471 2211 471 2207 475 2203 477 2203 478 2204 480 2202 494 2202 496 2200 499 2200 500 2199 501 2199 502 2198 510 2198 510 2197 509 2196 509 2193 510 2192 510 2182 512 2180 527 2180 529 2182 529 2191 531 2191 533 2193 534 2193 534 2192 536 2190 541 2190 541 2185 543 2183 545 2183 546 2182 547 2182 546 2181 546 2178 548 2176 559 2176 560 2177 568 2177 570 2175 573 2175 573 2169 574 2168 574 2164 576 2162 576 2160 578 2158 581 2158 583 2160 584 2160 586 2158 591 2158 592 2159 593 2159 594 2160 594 2152 596 2150 603 2150 604 2151 604 2149 606 2147 607 2147 608 2146 613 2146 613 2144 617 2140 621 2140 621 2134 622 2133 622 2131 621 2130 621 2127 622 2126 622 2124 624 2122 630 2122 636 2116 638 2116 638 2115 637 2114 637 2111 639 2109 642 2109 643 2110 644 2110 644 2108 643 2107 643 2105 644 2104 644 2103 642 2101 642 2096 644 2094 648 2094 649 2095 650 2094 651 2094 653 2092 653 2089 654 2088 654 2084 656 2082 656 2080 660 2076 660 2068 664 2064 667 2064 668 2063 669 2063 670 2062 669 2061 669 2059 670 2058 670 2048 669 2047 669 2045 672 2042 672 2039 669 2036 669 2031 670 2030 670 2026 672 2024 672 2021 671 2020 671 2015 672 2014 672 2010 674 2008 674 2004 676 2002 681 2002 681 1997 683 1995 685 1995 685 1971 686 1970 686 1958 685 1957 685 1948 684 1947 684 1945 683 1944 683 1920 681 1918 681 1917 680 1916 680 1912 679 1912 677 1910 677 1908 676 1907 676 1895 674 1895 670 1891 670 1888 671 1887 671 1886 670 1885 670 1882 669 1881 669 1879 670 1878 670 1875 669 1874 669 1872 670 1871 670 1869 669 1868 669 1866 668 1865 664 1865 662 1863 662 1861 660 1861 658 1859 656 1859 654 1857 654 1854 655 1853 655 1852 654 1851 654 1840 653 1839 653 1836 652 1835 652 1833 651 1832 651 1830 652 1829 640 1829 638 1827 638 1824 640 1822 642 1822 642 1817 640 1817 638 1815 624 1815 622 1813 622 1798 623 1797 623 1796 622 1795 622 1785 621 1784 621 1783 620 1783 618 1781 616 1781 614 1779 614 1778 613 1778 613 1781 611 1783 608 1783 606 1781 606 1773 605 1772 605 1771 603 1769 603 1767 601 1767 599 1765 599 1763 599 1765 595 1769 592 1769 590 1767 590 1766 589 1765 589 1757 587 1755 580 1755 578 1753 578 1751 576 1751 575 1750 574 1750 573 1749 569 1753 566 1753 562 1749 562 1746 559 1746 557 1744 557 1743 556 1743 554 1741 554 1738 551 1735 550 1736 543 1736 541 1734 528 1734 527 1735 518 1735 516 1733 513 1733 513 1735 511 1737 496 1737 494 1735 494 1727 493 1726 491 1726 490 1727 488 1727 486 1725 486 1724 485 1723 485 1722 479 1722 478 1721 Z" fill="none" stroke="black"/>
<path id="bubble41" d="M 647 477 647 478 Z" fill="none" stroke="black"/>
<path id="bubble42" d="M 464 205 463 206 449 206 449 207 447 209 400 209 398 207 393 207 391 209 374 209 373 210 369 210 369 221 367 223 363 223 361 225 329 225 328 226 323 226 323 231 321 233 319 233 317 231 314 231 313 232 311 232 311 237 307 241 302 241 301 242 290 242 290 246 289 247 289 248 287 250 287 255 285 257 281 257 281 258 279 260 273 260 273 262 271 264 271 265 269 267 267 267 266 268 266 271 263 274 258 274 258 278 257 279 257 280 255 282 255 283 251 287 249 287 247 289 247 294 249 296 249 298 247 300 241 300 241 303 239 305 238 305 238 307 236 309 236 311 235 312 235 315 233 317 231 317 228 320 228 327 226 329 225 329 225 334 227 334 229 336 229 351 227 353 220 353 218 351 218 346 218 347 217 348 217 354 215 356 209 356 209 365 210 366 210 371 209 372 209 394 210 395 210 400 209 401 209 421 207 423 204 423 203 424 203 426 205 426 207 428 207 438 209 440 209 455 207 457 203 457 201 459 201 462 202 462 204 464 204 470 207 470 209 472 209 502 208 503 210 505 210 512 209 513 209 519 210 519 211 520 212 520 214 522 214 526 223 526 225 528 225 542 226 542 228 544 228 557 232 557 233 558 236 558 238 560 239 560 241 562 241 571 247 571 249 573 249 578 251 580 251 589 250 590 251 589 254 589 255 590 257 590 259 592 260 592 262 594 262 597 263 596 265 596 266 597 267 597 268 596 271 596 273 598 273 607 274 608 275 608 277 610 284 610 286 612 286 621 289 624 290 624 292 622 300 622 301 621 304 621 306 623 306 626 303 629 299 629 300 630 300 632 301 632 305 636 305 638 310 638 311 639 313 639 315 641 315 642 316 642 318 644 318 645 319 645 320 646 321 646 323 648 323 654 326 654 327 653 333 653 334 654 345 654 347 656 347 659 345 661 344 661 345 661 346 662 348 660 351 660 353 662 353 663 354 664 354 666 353 667 359 667 361 669 363 669 364 670 371 670 373 672 375 672 377 674 379 674 381 676 381 678 399 678 401 680 401 681 402 682 402 684 408 684 410 686 413 686 414 685 416 685 417 686 424 686 425 685 432 685 433 686 443 686 444 685 446 685 447 686 454 686 454 685 456 683 461 683 462 682 462 681 464 679 462 677 462 672 464 670 485 670 487 672 494 672 494 656 496 654 526 654 526 640 528 638 546 638 547 639 548 639 549 638 562 638 562 634 566 630 566 629 568 627 573 627 574 626 574 621 576 619 582 619 582 616 584 614 585 614 585 608 587 606 590 606 590 596 592 594 594 594 594 592 596 590 599 590 601 592 601 596 605 596 605 591 606 590 606 586 610 582 610 581 606 577 606 560 608 558 623 558 624 559 624 549 622 547 622 543 624 541 624 536 623 535 623 533 625 531 627 531 628 532 630 530 630 528 632 526 638 526 638 516 639 515 639 513 638 512 638 496 640 494 640 486 642 484 645 484 646 485 646 480 645 481 642 481 640 479 640 473 638 471 638 464 640 462 650 462 651 461 652 461 652 449 650 447 650 433 646 433 644 431 644 424 643 423 643 422 642 421 642 417 640 417 638 415 638 400 640 398 643 398 643 395 641 393 641 392 640 391 640 385 638 383 638 380 640 378 640 377 638 375 638 361 637 361 635 359 635 351 636 350 635 350 633 348 633 347 630 347 626 343 626 341 624 339 624 337 622 335 622 321 620 321 618 319 618 316 616 316 614 314 613 315 608 315 606 313 606 297 604 295 604 289 600 289 599 290 597 290 596 289 596 295 594 297 594 298 593 299 593 302 590 305 587 305 588 306 588 312 589 312 593 316 593 335 591 337 576 337 575 336 574 337 572 337 571 336 570 336 569 337 564 337 563 338 559 338 558 337 555 337 554 336 553 337 546 337 544 335 544 332 545 331 545 330 542 327 542 314 544 312 548 312 550 310 550 304 552 302 557 302 558 303 558 302 559 301 558 300 558 292 560 290 564 290 564 289 562 287 562 282 564 280 568 280 569 279 571 279 572 280 574 278 574 277 573 276 573 271 575 269 579 269 576 269 574 267 574 258 575 257 575 256 571 252 568 252 566 250 566 248 568 246 570 246 570 243 569 242 566 242 565 241 562 241 561 242 559 242 556 239 556 238 555 239 553 239 551 241 544 241 542 239 542 236 544 234 546 234 547 233 541 233 539 231 539 225 538 226 536 226 535 225 528 225 526 223 526 221 521 221 519 223 508 223 506 221 506 218 508 216 510 216 510 213 509 213 508 214 505 214 501 210 500 210 497 213 497 215 495 217 493 217 491 215 491 209 470 209 468 207 468 205 Z" fill="none" stroke="black"/>
</svg>